<svg xmlns="http://www.w3.org/2000/svg" width="380" height="169" fill="none"><path fill="#DC00C6" fill-rule="evenodd" d="M38.9 3.5c6.08 0 11.9 1.53 17.1 4.34a2.73 2.73 0 0 0 2.8 2.76c.33 0 .71-.05 1.09-.2a218.34 218.34 0 0 0 .96.72c-.16.43-.25.9-.25 1.38 0 2.29 1.69 4.2 4 4.2 2.35 0 4.2-1.85 4.2-4.2a4.12 4.12 0 0 0-5.66-3.7c-.51-.42-1.03-.8-1.54-1.15a2.88 2.88 0 0 0-2.8-2.75c-.36 0-.69.06-.99.17A40.32 40.32 0 0 0 38.9.3C17.54.3 0 17.85 0 39.5c0 21.55 17.54 39.1 38.9 39.1a39.2 39.2 0 0 0 27.6-11.39l.76-.74-2.5-2.25-.67.67A35.38 35.38 0 0 1 38.9 75.3c-19.54 0-35.6-16.05-35.6-35.8 0-19.86 16.06-36 35.6-36Zm37.5 36.3-.13.69.14-.69Zm-1.47-.35c.1.23.22.48.39.7l-.03.13c-.2.97-.4 1.91-.5 2.9a4.38 4.38 0 0 0-2.86 3.1v.06a4.16 4.16 0 0 0 2.87 4.69 29.6 29.6 0 0 0 29.3 25.77 29.62 29.62 0 0 0 29.7-29.6c0-16.44-13.23-29.9-29.7-29.9-12.22 0-22.93 7.72-27.4 18.6a2.86 2.86 0 0 0-1.95 1.93l-.04.13v.14c0 .44.06.91.22 1.35Zm5.45-.4.01-.06v-.05c.12-.78-.1-1.47-.44-2a26.1 26.1 0 0 1 24.16-16.24 26.46 26.46 0 0 1 26.4 26.5 26.42 26.42 0 0 1-26.4 26.3A26.48 26.48 0 0 1 78 50.76a3.63 3.63 0 0 0 2.2-2.93 4.14 4.14 0 0 0-2.17-4.36c.14-.79.32-1.57.5-2.33a3.13 3.13 0 0 0 1.85-2.1Zm135.12-22.4-36.6 28.38-36.4-28.38v46.42c-.25.21-.48.47-.66.74-.3.46-.54 1.05-.54 1.69 0 1.03.58 1.78 1.2 2.25v2.62a4.08 4.08 0 0 0-2.5 3.73 4.3 4.3 0 0 0 4.2 4.3 4.3 4.3 0 0 0 4.2-4.3c0-1.63-1-3.12-2.6-3.75v-2.54a2.67 2.67 0 0 0 1.2-2.31c0-.9-.37-1.89-1.2-2.49V23.54l33.1 25.73 33.3-25.73v39.48c-.84.63-1.1 1.67-1.1 2.48 0 .52.1 1.07.4 1.56.18.3.42.54.7.74v2.58a4.17 4.17 0 0 0-2.5 3.72c0 2.17 1.77 4.3 4.1 4.3a4.3 4.3 0 0 0 3-1.3 4.3 4.3 0 0 0 1.3-3c0-1.64-1.08-3.1-2.6-3.74v-2.62c.62-.5 1.1-1.26 1.1-2.24 0-.91-.44-1.84-1.1-2.42V16.66Zm66.89 32.05h-37.67a2.8 2.8 0 0 1-2.33 1.3 2.7 2.7 0 0 1-1.63-.6 3.4 3.4 0 0 1-.65-.7h-2.59a4.18 4.18 0 0 1-3.93 2.5c-2.3 0-4-1.9-4-4.1 0-2.4 1.7-4.2 4-4.2 1.72 0 3.25.93 3.91 2.4h2.62a2.88 2.88 0 0 1 2.27-1.1c.85 0 1.78.35 2.31 1.1h34.35c-.72-13.76-12.34-24.7-26.46-24.7-14.35 0-26.3 11.85-26.3 26.5a26.4 26.4 0 0 0 26.3 26.3c7.15 0 13.88-2.6 18.88-7.8l.67-.69 2.48 2.24-.71.74a29.48 29.48 0 0 1-21.32 8.81 29.57 29.57 0 0 1-29.5-29.6c0-16.34 13.23-29.8 29.5-29.8a29.87 29.87 0 0 1 29.8 29.8v1.6Zm20.53-26.9h12.2v-3.4h-12.2V4.3h-3.3v14.1h-12.2v3.4h12.2v41.24a3.18 3.18 0 0 0-1.2 2.46c0 1 .5 1.79 1.2 2.28v2.61c-.57.27-1.09.67-1.5 1.15-.58.68-1 1.57-1 2.56 0 2.21 1.91 4.3 4.2 4.3 1.16 0 2.25-.54 3.03-1.3a4.25 4.25 0 0 0 1.37-3c0-1.7-1.2-3.14-2.8-3.75v-2.57c.7-.5 1.2-1.27 1.2-2.28 0-.93-.45-1.88-1.2-2.46V21.8Zm34.7 0h41.6v-3.2h-41.6c-8.24 0-15.2 6.63-15.2 15.1 0 8.36 6.95 15.2 15.2 15.2h27.2c6.45 0 11.8 5.26 11.8 11.8a11.9 11.9 0 0 1-11.8 11.8h-29.54a2.97 2.97 0 0 0-2.36-1.1c-.6 0-1.16.14-1.64.46-.26.18-.48.4-.65.64h-2.52a4.4 4.4 0 0 0-1.28-1.49 4.46 4.46 0 0 0-2.61-.91 3.97 3.97 0 0 0-4.1 4c0 2.15 1.65 4.3 4.1 4.3a4.4 4.4 0 0 0 3.94-2.7h2.42c.16.27.35.52.59.74.46.42 1.05.66 1.75.66 1.05 0 1.9-.6 2.4-1.4h30.5v-.03c7.79-.52 14-7.05 14-14.97 0-8.34-6.74-15.2-15-15.2h-27.3a11.8 11.8 0 0 1-11.7-11.8c0-6.56 5.26-11.9 11.8-11.9Zm-320.12 90h41.6v-3.2H17.5c-8.23 0-15.2 6.63-15.2 15.1 0 8.36 6.95 15.2 15.2 15.2h27.2c6.45 0 11.8 5.26 11.8 11.8 0 6.45-5.35 11.8-11.8 11.8H15.16a2.97 2.97 0 0 0-2.36-1.1c-.6 0-1.16.14-1.64.46-.26.18-.47.4-.64.64H7.99a4.3 4.3 0 0 0-1.28-1.49 4.46 4.46 0 0 0-2.61-.91 3.97 3.97 0 0 0-4.1 4c0 2.15 1.65 4.3 4.1 4.3a4.4 4.4 0 0 0 3.94-2.7h2.43c.15.27.34.52.58.74.46.42 1.05.66 1.75.66 1.05 0 1.9-.6 2.41-1.4H45.7v-.03c7.79-.52 14-7.05 14-14.97 0-8.34-6.73-15.2-15-15.2H17.4a11.8 11.8 0 0 1-11.7-11.8c0-6.56 5.26-11.9 11.8-11.9Zm62.73 0h12.2v-3.4h-12.2V94.3h-3.3v14.1h-12.2v3.4h12.2v41.24a3.18 3.18 0 0 0-1.2 2.46c0 1 .5 1.79 1.2 2.28v2.61a4.36 4.36 0 0 0-2.5 3.71c0 2.21 1.9 4.3 4.2 4.3 1.15 0 2.24-.54 3.03-1.3a4.25 4.25 0 0 0 1.37-3c0-1.7-1.21-3.14-2.8-3.75v-2.57c.7-.5 1.2-1.27 1.2-2.28a3.2 3.2 0 0 0-1.2-2.46V111.8Zm67.69 25.2v15.87a2.61 2.61 0 0 0-1.2 2.23c0 .97.48 1.83 1.2 2.37v2.56a4.09 4.09 0 0 0-2.6 3.87c0 2.2 1.99 4.1 4.3 4.1a4.1 4.1 0 0 0 2.86-1.24 4.09 4.09 0 0 0-1.36-6.73v-2.56c.72-.54 1.2-1.4 1.2-2.37a2.6 2.6 0 0 0-1.2-2.23V137c0-16.05-12.84-29-28.8-29-16.05 0-29 12.95-29 29a28.85 28.85 0 0 0 29 28.8c7.77 0 15.12-3 20.71-8.7l.74-.75-2.5-2.24-.67.7a25.25 25.25 0 0 1-18.28 7.79 25.65 25.65 0 0 1 0-51.3 25.67 25.67 0 0 1 25.6 25.7Zm13.41.2v15.84a3.18 3.18 0 0 0-1.2 2.46c0 1 .5 1.79 1.2 2.28v2.58a4.13 4.13 0 0 0-2.6 3.74 4.4 4.4 0 0 0 4.3 4.3c2.3 0 4.2-2.09 4.2-4.3a4.1 4.1 0 0 0-2.7-3.75v-2.54a2.68 2.68 0 0 0 1.3-2.31 3.1 3.1 0 0 0-1.3-2.5v-15.8a25.46 25.46 0 0 1 25.5-25.4 25.5 25.5 0 0 1 17.9 7.3l.7.71 2.3-2.3-.68-.7a28.21 28.21 0 0 0-20.22-8.41 28.72 28.72 0 0 0-28.7 28.8Zm69.72-25.4h12.2v-3.4h-12.2V94.3h-3.3v14.1h-12.2v3.4h12.2v41.24a3.18 3.18 0 0 0-1.2 2.46c0 1 .5 1.79 1.2 2.28v2.61a4.36 4.36 0 0 0-2.5 3.71c0 2.21 1.9 4.3 4.2 4.3 1.15 0 2.24-.54 3.03-1.3a4.25 4.25 0 0 0 1.37-3c0-1.7-1.21-3.14-2.8-3.75v-2.57c.7-.5 1.2-1.27 1.2-2.28a3.2 3.2 0 0 0-1.2-2.46V111.8Zm71.39 24.9v.4-.4Zm1 2h-37.67a2.8 2.8 0 0 1-2.33 1.3c-.63 0-1.2-.27-1.62-.6-.25-.2-.47-.44-.66-.7h-2.59a4.19 4.19 0 0 1-3.93 2.5c-2.3 0-4-1.9-4-4.1 0-2.4 1.7-4.2 4-4.2 1.72 0 3.25.93 3.92 2.4h2.62a2.88 2.88 0 0 1 2.26-1.1c.86 0 1.78.34 2.32 1.1h34.35c-.73-13.76-12.35-24.7-26.47-24.7-14.34 0-26.3 11.85-26.3 26.5a26.4 26.4 0 0 0 26.3 26.3c7.15 0 13.88-2.6 18.88-7.8l.67-.69 2.49 2.24-.72.74a29.48 29.48 0 0 1-21.32 8.81 29.57 29.57 0 0 1-29.5-29.6c0-16.34 13.24-29.8 29.5-29.8a29.87 29.87 0 0 1 29.8 29.8v1.6Zm7.64-1.5v15.84a3.18 3.18 0 0 0-1.2 2.46c0 1 .5 1.79 1.2 2.28v2.58a4.13 4.13 0 0 0-2.6 3.74 4.4 4.4 0 0 0 4.3 4.3c2.29 0 4.2-2.09 4.2-4.3a4.1 4.1 0 0 0-2.7-3.75v-2.54a2.68 2.68 0 0 0 1.3-2.31 3.1 3.1 0 0 0-1.3-2.5v-15.8a25.46 25.46 0 0 1 25.5-25.4 25.5 25.5 0 0 1 17.89 7.3l.7.71 2.3-2.3-.67-.7a28.21 28.21 0 0 0-20.22-8.41 28.72 28.72 0 0 0-28.7 28.8Z" clip-rule="evenodd"/></svg>