<?xml version="1.0" standalone="no"?>
<!DOCTYPE svg PUBLIC "-//W3C//DTD SVG 20010904//EN"
 "http://www.w3.org/TR/2001/REC-SVG-20010904/DTD/svg10.dtd">
<svg version="1.0" xmlns="http://www.w3.org/2000/svg"
 width="700.000000pt" height="700.000000pt" viewBox="0 0 700.000000 700.000000"
 preserveAspectRatio="xMidYMid meet">
<metadata>
Created by potrace 1.14, written by Peter Selinger 2001-2017
</metadata>
<g transform="translate(0.000000,700.000000) scale(0.100000,-0.100000)"
fill="#000000" stroke="none">
<path d="M1433 6988 c2 -7 10 -13 17 -13 7 0 15 6 18 13 2 7 -5 12 -18 12 -13
0 -20 -5 -17 -12z"/>
<path d="M1747 6993 c-13 -12 -7 -23 11 -23 10 0 19 7 19 15 0 15 -18 20 -30
8z"/>
<path d="M3570 6987 c0 -21 11 -27 31 -16 27 14 23 29 -6 29 -14 0 -25 -6 -25
-13z"/>
<path d="M3783 6988 c2 -7 10 -13 17 -13 7 0 15 6 18 13 2 7 -5 12 -18 12 -13
0 -20 -5 -17 -12z"/>
<path d="M5090 6975 c-15 -39 -12 -47 13 -43 17 2 22 10 22 32 0 38 -22 45
-35 11z"/>
<path d="M5660 6985 c0 -10 11 -15 35 -15 24 0 35 5 35 15 0 10 -11 15 -35 15
-24 0 -35 -5 -35 -15z"/>
<path d="M250 6966 c0 -9 7 -16 16 -16 9 0 14 5 12 12 -6 18 -28 21 -28 4z"/>
<path d="M745 6970 c3 -5 8 -10 11 -10 2 0 4 5 4 10 0 6 -5 10 -11 10 -5 0 -7
-4 -4 -10z"/>
<path d="M2210 6970 c-17 -10 -5 -40 15 -40 19 0 49 27 38 33 -22 12 -41 14
-53 7z"/>
<path d="M6480 6973 c-25 -10 -29 -25 -13 -50 18 -28 58 -30 72 -5 7 14 6 25
-5 40 -15 22 -27 25 -54 15z"/>
<path d="M3310 6962 c0 -14 11 -21 26 -15 21 8 17 23 -6 23 -11 0 -20 -4 -20
-8z"/>
<path d="M1193 6953 c-21 -8 -15 -29 12 -41 27 -12 32 -3 19 32 -6 17 -11 18
-31 9z"/>
<path d="M5725 6930 c-3 -10 0 -31 7 -45 13 -23 15 -24 36 -9 21 14 21 17 7
45 -18 33 -41 38 -50 9z"/>
<path d="M1606 6923 c-4 -9 -3 -20 2 -25 11 -11 36 17 27 32 -9 15 -22 12 -29
-7z"/>
<path d="M2975 6920 c3 -5 11 -10 16 -10 6 0 7 5 4 10 -3 6 -11 10 -16 10 -6
0 -7 -4 -4 -10z"/>
<path d="M3080 6915 c0 -8 5 -15 10 -15 6 0 10 7 10 15 0 8 -4 15 -10 15 -5 0
-10 -7 -10 -15z"/>
<path d="M3472 6918 c-8 -8 -9 -15 -1 -25 14 -16 31 -17 47 -1 9 9 7 14 -6 24
-21 17 -25 17 -40 2z"/>
<path d="M2473 6899 c-13 -5 -23 -13 -23 -18 0 -16 28 -20 40 -6 18 21 8 34
-17 24z"/>
<path d="M5146 6901 c-7 -11 50 -61 70 -61 21 0 17 13 -14 43 -29 28 -47 34
-56 18z"/>
<path d="M3330 6885 c-10 -13 -9 -15 9 -15 11 0 21 4 21 9 0 18 -18 21 -30 6z"/>
<path d="M4006 6885 c-4 -10 1 -15 14 -15 11 0 20 7 20 15 0 8 -6 15 -14 15
-8 0 -16 -7 -20 -15z"/>
<path d="M6285 6889 c-12 -19 5 -23 22 -6 16 16 16 17 1 17 -9 0 -20 -5 -23
-11z"/>
<path d="M1400 6878 c0 -9 5 -20 10 -23 13 -8 13 5 0 25 -8 13 -10 13 -10 -2z"/>
<path d="M6540 6874 c0 -8 5 -12 10 -9 6 4 8 11 5 16 -9 14 -15 11 -15 -7z"/>
<path d="M4254 6855 c-21 -15 -14 -27 16 -32 14 -2 20 3 20 16 0 27 -13 33
-36 16z"/>
<path d="M1490 6851 c0 -5 7 -12 16 -15 22 -9 24 -8 24 9 0 8 -9 15 -20 15
-11 0 -20 -4 -20 -9z"/>
<path d="M1966 6844 c-9 -8 -14 -19 -11 -24 8 -12 45 0 45 16 0 21 -17 25 -34
8z"/>
<path d="M6625 6848 c-20 -11 -35 -28 -35 -39 0 -11 40 -18 46 -7 5 7 14 59
10 58 0 0 -10 -6 -21 -12z"/>
<path d="M3080 6841 c0 -12 26 -32 33 -25 9 10 -4 34 -19 34 -8 0 -14 -4 -14
-9z"/>
<path d="M3577 6829 c7 -7 15 -10 18 -7 3 3 -2 9 -12 12 -14 6 -15 5 -6 -5z"/>
<path d="M6000 6825 c-22 -26 -8 -50 33 -53 34 -3 37 -1 37 22 0 14 -4 28 -10
31 -21 13 -49 13 -60 0z"/>
<path d="M6252 6798 c22 -41 48 -61 48 -38 0 14 -52 80 -63 80 -5 0 2 -19 15
-42z"/>
<path d="M5740 6815 c-7 -9 -10 -18 -7 -21 7 -8 47 14 47 26 0 15 -26 12 -40
-5z"/>
<path d="M3170 6795 c0 -15 4 -24 10 -20 6 3 10 12 10 20 0 8 -4 17 -10 20 -6
4 -10 -5 -10 -20z"/>
<path d="M1292 6798 c-16 -16 -15 -28 3 -28 8 0 15 9 15 20 0 23 -2 24 -18 8z"/>
<path d="M2827 6803 c-4 -3 -7 -12 -7 -20 0 -15 26 -18 34 -4 7 11 -18 33 -27
24z"/>
<path d="M4316 6801 c-3 -5 1 -14 9 -21 12 -10 15 -10 15 3 0 19 -16 31 -24
18z"/>
<path d="M5845 6799 c-8 -13 13 -39 31 -39 21 0 17 23 -6 37 -13 8 -21 9 -25
2z"/>
<path d="M5636 6785 c-6 -18 29 -41 39 -25 7 11 -12 40 -25 40 -4 0 -10 -7
-14 -15z"/>
<path d="M2014 6779 c-3 -6 3 -20 14 -31 l20 -20 11 20 c9 18 8 23 -8 32 -25
13 -28 13 -37 -1z"/>
<path d="M2368 6765 c-35 -30 -38 -59 -5 -50 39 12 67 35 67 55 0 27 -29 25
-62 -5z"/>
<path d="M6500 6777 c0 -16 35 -49 68 -67 31 -15 37 -8 12 15 -11 10 -20 26
-20 35 0 18 -19 30 -46 30 -8 0 -14 -6 -14 -13z"/>
<path d="M990 6771 c0 -18 18 -21 30 -6 10 13 9 15 -9 15 -11 0 -21 -4 -21 -9z"/>
<path d="M1073 6773 c-17 -6 -16 -38 1 -52 11 -9 18 -8 30 4 9 9 16 20 16 25
0 13 -32 28 -47 23z"/>
<path d="M1763 6773 c-7 -2 -13 -15 -13 -28 0 -32 20 -37 47 -12 21 19 21 21
5 33 -18 14 -21 15 -39 7z"/>
<path d="M2267 6774 c-4 -4 -7 -14 -7 -23 0 -11 3 -12 11 -4 6 6 10 16 7 23
-2 6 -7 8 -11 4z"/>
<path d="M1421 6741 c-14 -26 -3 -45 18 -31 11 6 12 14 4 32 l-10 23 -12 -24z"/>
<path d="M5454 6743 c-17 -17 -15 -32 8 -46 23 -15 48 -1 48 27 0 29 -34 41
-56 19z"/>
<path d="M1467 6693 c-13 -15 -13 -21 -2 -36 14 -19 18 -16 34 27 13 31 -6 37
-32 9z"/>
<path d="M5536 6688 c-20 -27 -8 -41 28 -32 20 5 26 12 24 28 -4 29 -33 32
-52 4z"/>
<path d="M6733 6684 c-7 -19 2 -28 22 -21 19 8 19 23 0 31 -9 3 -18 -1 -22
-10z"/>
<path d="M274 6675 c-16 -12 -17 -16 -5 -24 18 -11 41 -3 41 14 0 22 -15 26
-36 10z"/>
<path d="M451 6676 c-12 -14 -11 -19 5 -31 36 -27 54 -10 26 25 -16 20 -19 21
-31 6z"/>
<path d="M2657 6684 c-3 -3 -3 -12 0 -20 4 -11 9 -12 19 -3 8 6 14 15 14 20 0
10 -24 12 -33 3z"/>
<path d="M2910 6675 c0 -18 85 -64 100 -55 20 12 -31 62 -68 65 -21 2 -32 -2
-32 -10z"/>
<path d="M4417 6676 c-7 -18 17 -51 31 -42 11 7 11 24 -1 44 -11 16 -24 15
-30 -2z"/>
<path d="M1758 6663 c7 -3 16 -2 19 1 4 3 -2 6 -13 5 -11 0 -14 -3 -6 -6z"/>
<path d="M5633 6654 c-9 -25 16 -39 68 -35 18 1 21 31 4 43 -18 14 -65 8 -72
-8z"/>
<path d="M2500 6635 c0 -8 6 -15 14 -15 22 0 28 17 10 24 -22 9 -24 8 -24 -9z"/>
<path d="M2157 6634 c-4 -4 -7 -18 -7 -31 0 -26 27 -32 37 -7 6 17 -19 49 -30
38z"/>
<path d="M1065 6589 c-40 -30 -50 -49 -30 -56 14 -4 89 73 78 80 -4 3 -26 -8
-48 -24z"/>
<path d="M5562 6598 c-34 -34 6 -90 48 -68 26 14 25 45 -2 64 -27 19 -31 19
-46 4z"/>
<path d="M4915 6590 c3 -5 8 -10 11 -10 2 0 4 5 4 10 0 6 -5 10 -11 10 -5 0
-7 -4 -4 -10z"/>
<path d="M3135 6571 c-10 -17 12 -21 25 -6 10 12 10 15 -3 15 -9 0 -18 -4 -22
-9z"/>
<path d="M5470 6549 l0 -31 19 23 c14 17 16 26 8 31 -21 14 -27 8 -27 -23z"/>
<path d="M5876 6564 c-9 -23 -7 -54 2 -54 5 0 17 8 26 19 16 17 16 20 1 35
-20 20 -21 20 -29 0z"/>
<path d="M5997 6568 c-10 -7 -19 -23 -21 -35 -5 -22 -3 -22 27 -10 20 8 33 22
35 35 4 25 -15 29 -41 10z"/>
<path d="M3002 6551 c-15 -9 -15 -17 0 -45 8 -15 12 -16 24 -5 8 8 11 24 8 37
-7 24 -12 26 -32 13z"/>
<path d="M3215 6551 c-3 -5 -1 -12 5 -16 12 -7 30 2 30 16 0 12 -27 12 -35 0z"/>
<path d="M3340 6545 c0 -8 5 -15 10 -15 6 0 10 7 10 15 0 8 -4 15 -10 15 -5 0
-10 -7 -10 -15z"/>
<path d="M1456 6535 c4 -8 8 -15 10 -15 2 0 4 7 4 15 0 8 -4 15 -10 15 -5 0
-7 -7 -4 -15z"/>
<path d="M2472 6539 c-33 -13 -27 -53 9 -57 23 -3 25 0 25 32 -1 39 -1 39 -34
25z"/>
<path d="M3430 6540 c-13 -9 -11 -13 9 -31 28 -23 47 -8 28 23 -14 21 -17 21
-37 8z"/>
<path d="M6089 6550 c0 -3 -2 -13 -4 -22 -4 -20 10 -24 21 -7 3 6 1 16 -5 22
-6 6 -11 9 -12 7z"/>
<path d="M6514 6535 c-3 -8 1 -23 9 -35 14 -21 14 -21 32 6 14 22 15 28 4 35
-21 13 -39 11 -45 -6z"/>
<path d="M1097 6513 c-6 -32 19 -51 40 -31 19 20 9 54 -16 54 -12 0 -21 -9
-24 -23z"/>
<path d="M1956 6528 c15 -27 38 -48 51 -48 20 0 16 38 -6 50 -28 14 -54 13
-45 -2z"/>
<path d="M2084 6505 c-8 -33 -2 -39 31 -31 27 7 32 25 13 44 -19 19 -37 14
-44 -13z"/>
<path d="M6445 6501 c-9 -16 3 -31 26 -31 14 0 19 6 17 17 -4 20 -33 29 -43
14z"/>
<path d="M1580 6493 c-35 -14 -32 -57 3 -67 37 -10 47 -7 59 19 18 40 -15 66
-62 48z"/>
<path d="M541 6476 c-9 -11 -8 -18 5 -31 14 -14 19 -14 31 -2 15 15 8 47 -12
47 -7 0 -18 -6 -24 -14z"/>
<path d="M2605 6460 c-14 -16 -15 -22 -5 -35 17 -21 52 -1 48 27 -4 29 -21 32
-43 8z"/>
<path d="M3794 6465 c-8 -21 4 -35 31 -35 24 0 35 16 28 38 -6 17 -52 15 -59
-3z"/>
<path d="M4015 6468 c-40 -23 -86 -90 -72 -105 3 -2 15 5 26 16 12 12 29 21
39 21 15 0 52 54 52 75 0 9 -25 5 -45 -7z"/>
<path d="M5500 6466 c0 -18 27 -39 40 -31 15 9 12 32 -6 39 -24 9 -34 7 -34
-8z"/>
<path d="M682 6463 c-10 -4 -10 -8 -1 -19 15 -18 29 -18 29 0 0 18 -11 25 -28
19z"/>
<path d="M6252 6445 c0 -16 2 -22 5 -12 2 9 2 23 0 30 -3 6 -5 -1 -5 -18z"/>
<path d="M1276 6451 c-4 -5 -2 -12 3 -15 5 -4 12 -2 15 3 4 5 2 12 -3 15 -5 4
-12 2 -15 -3z"/>
<path d="M4150 6445 c12 -15 30 -12 30 6 0 5 -10 9 -21 9 -18 0 -19 -2 -9 -15z"/>
<path d="M5660 6444 c0 -9 5 -14 12 -12 18 6 21 28 4 28 -9 0 -16 -7 -16 -16z"/>
<path d="M2130 6438 c0 -23 18 -41 33 -35 22 8 10 47 -14 47 -11 0 -19 -6 -19
-12z"/>
<path d="M3390 6436 c0 -24 18 -28 30 -6 9 17 8 20 -10 20 -11 0 -20 -6 -20
-14z"/>
<path d="M3573 6424 c-3 -8 -1 -20 6 -27 8 -8 11 -4 11 16 0 30 -7 35 -17 11z"/>
<path d="M6338 6397 c-26 -12 -48 -24 -47 -27 0 -3 6 -14 14 -24 15 -19 15
-19 39 3 14 13 29 20 34 17 18 -11 33 19 19 37 -11 14 -16 14 -59 -6z"/>
<path d="M1525 6400 c-3 -5 1 -10 9 -10 9 0 16 5 16 10 0 6 -4 10 -9 10 -6 0
-13 -4 -16 -10z"/>
<path d="M1905 6390 c-21 -23 -13 -38 23 -45 18 -3 22 1 22 19 0 37 -23 50
-45 26z"/>
<path d="M1566 6364 c-10 -26 -7 -44 8 -44 13 0 26 20 26 40 0 15 -28 19 -34
4z"/>
<path d="M3240 6371 c0 -17 18 -21 24 -6 3 9 0 15 -9 15 -8 0 -15 -4 -15 -9z"/>
<path d="M1756 6362 c-7 -12 23 -52 39 -52 16 0 29 35 20 50 -7 12 -52 13 -59
2z"/>
<path d="M5783 6363 c-15 -5 -17 -39 -4 -47 4 -3 19 4 32 15 20 17 21 22 9 29
-16 11 -19 11 -37 3z"/>
<path d="M4350 6340 c0 -15 27 -23 47 -16 15 6 15 8 3 16 -20 13 -50 12 -50 0z"/>
<path d="M1046 6323 c-9 -22 10 -41 25 -26 13 13 5 43 -10 43 -5 0 -12 -8 -15
-17z"/>
<path d="M2235 6320 c-3 -5 -1 -10 4 -10 6 0 11 5 11 10 0 6 -2 10 -4 10 -3 0
-8 -4 -11 -10z"/>
<path d="M2456 6314 c-18 -18 -19 -23 -6 -44 7 -12 12 -10 29 9 16 18 18 27
10 38 -14 16 -14 16 -33 -3z"/>
<path d="M209 6312 c-7 -48 -5 -62 11 -62 10 0 29 6 44 13 22 12 24 16 13 32
-13 17 -66 30 -68 17z"/>
<path d="M3494 6306 c-8 -21 13 -46 37 -46 19 0 20 3 23 38 1 23 -52 30 -60 8z"/>
<path d="M137 6298 c-6 -19 11 -48 28 -48 20 0 19 25 -1 44 -19 19 -21 20 -27
4z"/>
<path d="M3612 6298 c7 -20 48 -23 48 -4 0 11 -9 16 -26 16 -16 0 -24 -5 -22
-12z"/>
<path d="M4528 6293 c-10 -11 -14 -24 -9 -31 10 -17 34 10 29 34 -3 14 -5 14
-20 -3z"/>
<path d="M6380 6300 c-9 -6 -10 -10 -3 -10 6 0 15 5 18 10 8 12 4 12 -15 0z"/>
<path d="M408 6288 c7 -7 12 -20 12 -30 0 -23 38 -58 56 -51 8 3 14 18 14 34
0 21 -7 32 -30 44 -36 19 -70 21 -52 3z"/>
<path d="M2564 6291 c4 -5 1 -12 -4 -14 -6 -3 -5 -4 2 -3 15 3 23 26 8 26 -6
0 -9 -4 -6 -9z"/>
<path d="M880 6264 c0 -8 5 -12 10 -9 6 3 10 10 10 16 0 5 -4 9 -10 9 -5 0
-10 -7 -10 -16z"/>
<path d="M2283 6267 c-29 -13 -29 -32 -1 -52 21 -14 24 -14 35 2 16 21 16 25
1 45 -10 13 -18 14 -35 5z"/>
<path d="M1202 6257 c-10 -11 -9 -17 2 -26 18 -15 31 2 18 25 -7 13 -10 13
-20 1z"/>
<path d="M4293 6263 c-16 -6 -17 -39 -3 -48 15 -9 40 14 40 36 0 19 -12 23
-37 12z"/>
<path d="M4965 6226 c-16 -12 -17 -16 -6 -30 18 -21 28 -20 40 3 15 27 -9 46
-34 27z"/>
<path d="M5670 6220 c0 -5 4 -10 9 -10 6 0 13 5 16 10 3 6 -1 10 -9 10 -9 0
-16 -4 -16 -10z"/>
<path d="M6905 6220 c3 -5 8 -10 11 -10 2 0 4 5 4 10 0 6 -5 10 -11 10 -5 0
-7 -4 -4 -10z"/>
<path d="M623 6205 c-8 -24 3 -29 27 -12 18 13 19 15 5 21 -23 8 -25 8 -32 -9z"/>
<path d="M1753 6207 c-8 -10 -9 -22 -4 -42 2 -11 41 16 41 29 0 19 -26 28 -37
13z"/>
<path d="M2200 6211 c0 -21 13 -41 26 -41 17 0 18 22 2 38 -14 14 -28 16 -28
3z"/>
<path d="M4049 6216 c-1 -3 -1 -15 -1 -26 0 -36 2 -40 22 -40 25 0 37 27 23
49 -10 16 -42 28 -44 17z"/>
<path d="M1460 6195 c-15 -18 -6 -46 19 -62 24 -15 46 6 37 34 -9 29 -42 45
-56 28z"/>
<path d="M1681 6197 c-16 -20 -2 -50 19 -37 10 6 11 14 4 30 -9 20 -11 20 -23
7z"/>
<path d="M1992 6201 c2 -7 7 -12 11 -12 12 1 9 15 -3 20 -7 2 -11 -2 -8 -8z"/>
<path d="M2557 6192 c-11 -12 -13 -22 -6 -35 22 -38 59 -5 39 34 -13 23 -13
23 -33 1z"/>
<path d="M951 6169 c-37 -40 -21 -49 53 -28 32 9 36 13 25 24 -27 26 -56 27
-78 4z"/>
<path d="M5040 6155 c-11 -13 -11 -19 3 -32 13 -13 19 -14 31 -4 18 15 14 45
-6 49 -8 2 -21 -4 -28 -13z"/>
<path d="M2133 6152 c-19 -12 -42 -96 -30 -110 13 -16 24 -5 29 28 1 14 9 25
16 25 12 0 32 22 32 37 0 12 -35 27 -47 20z"/>
<path d="M6013 6143 c9 -9 19 -14 23 -11 10 10 -6 28 -24 28 -15 0 -15 -1 1
-17z"/>
<path d="M3668 6139 c-22 -12 -24 -45 -4 -52 8 -3 26 3 41 15 20 16 23 23 14
34 -13 16 -27 17 -51 3z"/>
<path d="M3397 6133 c-4 -3 -7 -15 -7 -25 0 -22 27 -23 54 -3 18 14 18 15 -8
25 -32 12 -31 12 -39 3z"/>
<path d="M5526 6125 c-14 -14 -14 -20 -4 -34 7 -9 13 -18 15 -20 1 -2 7 9 13
24 13 35 -1 53 -24 30z"/>
<path d="M1974 6121 c-6 -6 -5 -57 2 -63 10 -10 44 4 54 23 15 26 2 49 -27 47
-13 -2 -26 -4 -29 -7z"/>
<path d="M2273 6094 c-3 -8 -1 -20 5 -26 16 -16 42 -2 42 22 0 24 -38 28 -47
4z"/>
<path d="M5107 6103 c-3 -5 -2 -15 2 -22 5 -7 11 -9 14 -4 3 5 2 15 -2 22 -5
7 -11 9 -14 4z"/>
<path d="M2875 6090 c-8 -13 9 -20 24 -11 10 6 9 10 -3 14 -8 3 -18 2 -21 -3z"/>
<path d="M6262 6088 c-13 -13 -16 -38 -4 -38 4 0 13 9 19 20 14 22 2 35 -15
18z"/>
<path d="M3935 6080 c-3 -5 1 -10 9 -10 9 0 16 5 16 10 0 6 -4 10 -9 10 -6 0
-13 -4 -16 -10z"/>
<path d="M4030 6081 c0 -13 22 -27 53 -35 29 -7 34 -2 14 18 -16 16 -67 29
-67 17z"/>
<path d="M6035 6051 c-3 -5 -1 -12 5 -16 5 -3 10 1 10 9 0 18 -6 21 -15 7z"/>
<path d="M701 6041 c-10 -7 -11 -13 -2 -30 14 -25 27 -27 35 -4 9 21 -14 45
-33 34z"/>
<path d="M1071 6034 l-22 -16 21 -15 c20 -14 23 -14 38 1 14 14 15 18 1 31
-13 13 -17 13 -38 -1z"/>
<path d="M1930 6040 c0 -5 5 -10 10 -10 6 0 10 5 10 10 0 6 -4 10 -10 10 -5 0
-10 -4 -10 -10z"/>
<path d="M3273 6034 c-7 -20 8 -36 25 -25 14 8 6 41 -9 41 -5 0 -12 -7 -16
-16z"/>
<path d="M6135 6040 c-3 -5 1 -10 9 -10 9 0 16 5 16 10 0 6 -4 10 -9 10 -6 0
-13 -4 -16 -10z"/>
<path d="M6807 6036 c-8 -21 22 -44 33 -26 10 17 2 40 -15 40 -7 0 -15 -6 -18
-14z"/>
<path d="M1690 6015 c-15 -18 -5 -35 21 -35 14 0 19 7 19 25 0 28 -21 33 -40
10z"/>
<path d="M2196 6022 c-9 -8 -7 -32 2 -32 5 0 16 6 27 13 17 13 17 14 -3 19
-11 3 -23 3 -26 0z"/>
<path d="M60 6006 c0 -9 7 -16 16 -16 17 0 14 22 -4 28 -7 2 -12 -3 -12 -12z"/>
<path d="M539 5982 c-1 -12 -2 -27 -3 -34 -2 -21 22 -19 29 3 5 14 1 27 -9 37
-15 15 -16 14 -17 -6z"/>
<path d="M1952 5979 c-10 -16 -11 -24 -3 -32 14 -14 37 -1 59 31 14 21 13 22
-14 22 -19 0 -34 -8 -42 -21z"/>
<path d="M2560 5996 c0 -2 7 -7 16 -10 8 -3 12 -2 9 4 -6 10 -25 14 -25 6z"/>
<path d="M4678 5979 c-24 -14 -23 -36 3 -49 30 -17 49 -5 49 30 0 32 -18 39
-52 19z"/>
<path d="M2634 5955 c-10 -25 3 -44 26 -38 25 7 32 17 24 37 -8 20 -43 21 -50
1z"/>
<path d="M6275 5957 c-19 -15 -13 -37 10 -37 16 0 38 34 28 44 -9 9 -17 8 -38
-7z"/>
<path d="M1460 5950 c-9 -6 -10 -10 -3 -10 6 0 15 5 18 10 8 12 4 12 -15 0z"/>
<path d="M1598 5948 c-8 -24 4 -58 22 -58 26 0 39 21 29 48 -9 23 -44 31 -51
10z"/>
<path d="M2020 5940 c-21 -21 -24 -37 -14 -64 5 -12 9 -13 24 -4 15 9 25 9 44
-1 13 -8 32 -11 41 -7 19 7 16 40 -3 42 -6 1 -19 2 -27 3 -8 0 -17 12 -21 26
-7 30 -18 31 -44 5z"/>
<path d="M135 5939 c-11 -17 1 -21 15 -4 8 9 8 15 2 15 -6 0 -14 -5 -17 -11z"/>
<path d="M310 5940 c0 -13 18 -22 24 -11 3 5 -1 11 -9 15 -8 3 -15 1 -15 -4z"/>
<path d="M3730 5933 c0 -28 15 -45 36 -41 13 2 19 12 19 28 0 20 -6 26 -27 28
-22 3 -28 -1 -28 -15z"/>
<path d="M6616 5937 c3 -10 9 -15 12 -12 3 3 0 11 -7 18 -10 9 -11 8 -5 -6z"/>
<path d="M3830 5931 c0 -17 18 -21 24 -6 3 9 0 15 -9 15 -8 0 -15 -4 -15 -9z"/>
<path d="M217 5913 c-4 -3 -7 -12 -7 -20 0 -11 4 -11 20 -3 11 6 18 15 15 21
-7 11 -19 12 -28 2z"/>
<path d="M901 5906 c-7 -8 -8 -17 -3 -20 6 -3 15 1 21 8 7 8 8 17 3 20 -6 3
-15 -1 -21 -8z"/>
<path d="M1490 5896 c-11 -31 -6 -46 16 -46 22 0 28 26 10 51 l-15 22 -11 -27z"/>
<path d="M1768 5878 c-21 -23 -38 -45 -38 -49 0 -14 55 -17 63 -3 4 8 14 14
22 14 15 0 45 27 45 40 0 13 -30 40 -43 40 -7 0 -29 -19 -49 -42z"/>
<path d="M1700 5906 c0 -2 8 -10 18 -17 15 -13 16 -12 3 4 -13 16 -21 21 -21
13z"/>
<path d="M5122 5896 c7 -8 15 -12 17 -11 5 6 -10 25 -20 25 -5 0 -4 -6 3 -14z"/>
<path d="M5773 5897 c-8 -14 15 -25 43 -19 24 4 43 21 27 23 -33 6 -65 3 -70
-4z"/>
<path d="M5904 5864 c-19 -20 -34 -41 -34 -45 0 -18 42 -8 65 16 25 24 34 65
14 65 -6 0 -26 -16 -45 -36z"/>
<path d="M1237 5873 c-3 -5 -2 -15 2 -22 5 -7 11 -9 14 -4 3 5 2 15 -2 22 -5
7 -11 9 -14 4z"/>
<path d="M1137 5843 c-12 -11 -8 -22 14 -34 24 -12 42 3 32 28 -5 14 -35 18
-46 6z"/>
<path d="M1968 5833 c7 -3 16 -2 19 1 4 3 -2 6 -13 5 -11 0 -14 -3 -6 -6z"/>
<path d="M2725 5831 c-3 -5 -1 -12 5 -16 5 -3 10 1 10 9 0 18 -6 21 -15 7z"/>
<path d="M4327 5833 c-11 -10 -8 -28 7 -48 13 -18 14 -17 30 12 14 28 14 32 0
37 -20 8 -29 8 -37 -1z"/>
<path d="M3247 5816 c-3 -8 0 -22 7 -31 10 -15 14 -15 24 -2 14 17 6 47 -13
47 -7 0 -15 -6 -18 -14z"/>
<path d="M4230 5819 c0 -5 5 -7 10 -4 6 3 10 8 10 11 0 2 -4 4 -10 4 -5 0 -10
-5 -10 -11z"/>
<path d="M2424 5787 c-24 -26 -37 -57 -25 -57 20 0 41 13 35 21 -3 5 2 12 10
15 16 6 23 44 9 44 -5 0 -17 -10 -29 -23z"/>
<path d="M6507 5790 c-3 -14 1 -25 13 -32 14 -9 16 -16 9 -29 -6 -13 -4 -22 7
-34 14 -14 19 -14 37 -2 32 21 31 32 -9 76 -41 46 -49 49 -57 21z"/>
<path d="M1510 5786 c0 -7 11 -23 24 -35 20 -19 28 -21 45 -12 20 11 20 11 -3
34 -25 25 -66 33 -66 13z"/>
<path d="M3567 5788 c-6 -18 11 -48 28 -48 18 0 47 29 42 43 -5 16 -64 20 -70
5z"/>
<path d="M2033 5766 c-33 -16 -28 -26 11 -26 29 0 46 13 46 36 0 7 -35 2 -57
-10z"/>
<path d="M5770 5745 c0 -23 2 -25 21 -15 23 13 21 33 -4 38 -12 3 -17 -4 -17
-23z"/>
<path d="M1115 5749 c-4 -6 -5 -12 -2 -15 2 -3 7 2 10 11 7 17 1 20 -8 4z"/>
<path d="M5572 5738 c6 -18 28 -21 28 -4 0 9 -7 16 -16 16 -9 0 -14 -5 -12
-12z"/>
<path d="M484 5729 c-3 -6 -1 -16 5 -22 8 -8 11 -5 11 11 0 24 -5 28 -16 11z"/>
<path d="M1833 5725 c-45 -32 -16 -71 29 -41 14 9 28 13 32 9 4 -5 6 3 4 17
-4 30 -34 37 -65 15z"/>
<path d="M4547 5733 c-4 -3 -7 -11 -7 -17 0 -6 5 -5 12 2 6 6 9 14 7 17 -3 3
-9 2 -12 -2z"/>
<path d="M2112 5713 c2 -11 14 -19 31 -21 29 -4 35 6 15 26 -19 19 -50 15 -46
-5z"/>
<path d="M3177 5715 c-7 -15 1 -25 20 -25 7 0 13 6 13 14 0 19 -27 28 -33 11z"/>
<path d="M4790 5719 c0 -5 5 -7 10 -4 6 3 10 8 10 11 0 2 -4 4 -10 4 -5 0 -10
-5 -10 -11z"/>
<path d="M6116 5721 c-4 -5 -2 -12 3 -15 5 -4 12 -2 15 3 4 5 2 12 -3 15 -5 4
-12 2 -15 -3z"/>
<path d="M1513 5694 c-9 -24 11 -38 35 -23 16 10 18 16 10 26 -14 18 -37 16
-45 -3z"/>
<path d="M5180 5704 c0 -17 17 -36 24 -26 3 5 -1 15 -9 22 -8 7 -15 9 -15 4z"/>
<path d="M3425 5687 c-22 -17 -14 -47 14 -47 24 0 36 29 18 47 -11 11 -16 11
-32 0z"/>
<path d="M1635 5680 c-12 -20 6 -67 30 -80 31 -17 40 -9 24 22 -22 42 -47 69
-54 58z"/>
<path d="M3523 5674 c-8 -22 5 -30 23 -12 14 14 14 16 -1 21 -9 4 -18 1 -22
-9z"/>
<path d="M4302 5678 c-16 -16 13 -48 43 -48 29 0 39 25 19 45 -18 18 -46 19
-62 3z"/>
<path d="M5908 5678 c-38 -13 -40 -53 -3 -44 58 15 79 26 67 38 -16 16 -31 17
-64 6z"/>
<path d="M2670 5653 c1 -27 1 -27 15 -9 14 19 12 36 -6 36 -5 0 -9 -12 -9 -27z"/>
<path d="M1941 5651 c-12 -8 -12 -12 -2 -25 25 -30 68 -16 55 18 -7 18 -31 21
-53 7z"/>
<path d="M6377 5635 c3 -8 9 -12 14 -9 12 7 11 11 -5 17 -10 4 -13 1 -9 -8z"/>
<path d="M1116 5608 c-10 -39 -7 -48 20 -58 38 -15 44 -5 26 40 -19 45 -37 51
-46 18z"/>
<path d="M1427 5614 c-9 -10 -9 -52 1 -57 4 -3 17 -1 30 4 17 6 22 15 20 31
-3 23 -36 37 -51 22z"/>
<path d="M3170 5616 c0 -2 7 -7 16 -10 8 -3 12 -2 9 4 -6 10 -25 14 -25 6z"/>
<path d="M4893 5613 c-22 -8 -15 -43 7 -43 13 0 20 7 20 19 0 22 -9 30 -27 24z"/>
<path d="M6144 5586 c-7 -29 1 -46 21 -46 16 0 31 43 20 59 -11 19 -34 12 -41
-13z"/>
<path d="M2346 5585 c-3 -8 -2 -15 3 -15 5 0 14 7 21 15 10 12 10 15 -3 15 -8
0 -17 -7 -21 -15z"/>
<path d="M6751 5586 c-7 -8 -8 -17 -3 -20 6 -3 13 1 16 10 9 23 2 28 -13 10z"/>
<path d="M0 5566 c0 -9 5 -16 10 -16 6 0 10 4 10 9 0 6 -4 13 -10 16 -5 3 -10
-1 -10 -9z"/>
<path d="M3110 5560 c9 -16 15 -18 31 -10 25 14 16 30 -17 30 -22 0 -23 -2
-14 -20z"/>
<path d="M732 5558 c-31 -31 1 -79 37 -56 26 16 26 20 -2 46 -18 17 -26 19
-35 10z"/>
<path d="M6240 5559 c0 -5 -14 -23 -30 -38 -32 -29 -33 -54 -3 -66 21 -7 32
11 27 42 -3 15 1 26 11 29 17 7 21 44 5 44 -5 0 -10 -5 -10 -11z"/>
<path d="M1930 5526 c0 -29 21 -48 39 -37 21 13 5 61 -19 61 -14 0 -20 -7 -20
-24z"/>
<path d="M2442 5537 c-8 -9 -6 -19 7 -35 l17 -23 18 20 c10 11 16 27 13 36 -8
18 -41 20 -55 2z"/>
<path d="M6784 5539 c-3 -6 -2 -15 4 -21 13 -13 32 -2 32 18 0 16 -26 19 -36
3z"/>
<path d="M6270 5533 c0 -4 5 -15 10 -23 8 -13 10 -13 10 2 0 9 -4 20 -10 23
-5 3 -10 3 -10 -2z"/>
<path d="M6940 5531 c0 -6 4 -13 10 -16 6 -3 7 1 4 9 -7 18 -14 21 -14 7z"/>
<path d="M2890 5509 c0 -11 5 -17 10 -14 6 3 10 13 10 21 0 8 -4 14 -10 14 -5
0 -10 -9 -10 -21z"/>
<path d="M1260 5491 c0 -28 15 -33 34 -12 18 20 12 31 -16 31 -11 0 -18 -7
-18 -19z"/>
<path d="M3658 5499 c-10 -6 -18 -14 -18 -19 0 -14 37 -12 46 1 10 17 -9 29
-28 18z"/>
<path d="M6690 5499 c0 -5 5 -7 10 -4 6 3 10 8 10 11 0 2 -4 4 -10 4 -5 0 -10
-5 -10 -11z"/>
<path d="M5767 5483 c-13 -12 -7 -23 13 -23 11 0 20 7 20 15 0 15 -21 21 -33
8z"/>
<path d="M902 5446 c0 -20 1 -36 3 -36 2 0 10 3 19 6 21 8 20 27 -3 48 -18 17
-19 16 -19 -18z"/>
<path d="M3388 5459 c-22 -12 -23 -35 -3 -43 14 -5 35 20 35 43 0 14 -10 13
-32 0z"/>
<path d="M3732 5463 c-10 -4 -10 -8 -2 -18 14 -16 40 -9 40 11 0 14 -14 17
-38 7z"/>
<path d="M5530 5454 c0 -8 5 -12 10 -9 6 4 8 11 5 16 -9 14 -15 11 -15 -7z"/>
<path d="M1778 5438 c-7 -19 2 -38 17 -38 23 0 26 16 6 34 -14 13 -20 14 -23
4z"/>
<path d="M2242 5428 c-13 -13 2 -38 24 -38 22 0 25 16 6 34 -14 12 -21 13 -30
4z"/>
<path d="M3061 5426 c-9 -10 -8 -16 3 -25 12 -10 17 -8 25 7 16 30 -6 44 -28
18z"/>
<path d="M6160 5430 c-12 -8 -11 -10 8 -10 12 0 22 5 22 10 0 13 -11 13 -30 0z"/>
<path d="M5005 5389 c-4 -11 -4 -23 -1 -27 10 -9 39 25 32 37 -11 17 -24 13
-31 -10z"/>
<path d="M5670 5400 c0 -5 6 -10 14 -10 8 0 18 5 21 10 3 6 -3 10 -14 10 -12
0 -21 -4 -21 -10z"/>
<path d="M653 5393 c-27 -5 -31 -34 -8 -53 13 -11 18 -10 30 6 15 20 20 55 8
53 -5 -1 -18 -4 -30 -6z"/>
<path d="M1433 5392 c-7 -4 -8 -13 -4 -20 6 -10 10 -10 20 2 13 16 2 29 -16
18z"/>
<path d="M1694 5385 c22 -17 46 -20 46 -6 0 10 -25 21 -48 21 -15 -1 -14 -3 2
-15z"/>
<path d="M5530 5379 c-20 -8 -22 -12 -10 -19 22 -14 47 -12 53 4 10 26 -3 31
-43 15z"/>
<path d="M722 5346 c-13 -28 -7 -36 25 -36 23 0 29 14 17 44 -9 23 -29 19 -42
-8z"/>
<path d="M1160 5336 c0 -32 12 -39 46 -26 24 9 25 13 13 24 -8 8 -24 17 -36
21 -20 5 -23 3 -23 -19z"/>
<path d="M3216 5353 c-15 -15 -3 -34 29 -47 41 -18 87 -8 63 12 -22 18 -85 42
-92 35z"/>
<path d="M4374 5349 c-8 -14 11 -33 25 -25 6 4 11 11 11 16 0 13 -29 20 -36 9z"/>
<path d="M1657 5318 c-11 -36 37 -80 62 -55 17 17 13 34 -11 51 -27 19 -45 20
-51 4z"/>
<path d="M6060 5320 c0 -5 5 -10 10 -10 6 0 10 5 10 10 0 6 -4 10 -10 10 -5 0
-10 -4 -10 -10z"/>
<path d="M2768 5303 c-7 -9 -7 -17 1 -27 31 -37 83 -18 62 23 -12 22 -46 24
-63 4z"/>
<path d="M3137 5298 c-8 -27 10 -40 36 -27 18 10 18 12 1 30 -22 25 -30 24
-37 -3z"/>
<path d="M5440 5306 c-13 -17 -6 -36 15 -36 19 0 26 27 11 39 -10 8 -17 7 -26
-3z"/>
<path d="M5671 5297 c-13 -16 -5 -27 20 -27 12 0 16 6 12 20 -6 23 -16 25 -32
7z"/>
<path d="M845 5290 c3 -5 8 -10 11 -10 2 0 4 5 4 10 0 6 -5 10 -11 10 -5 0 -7
-4 -4 -10z"/>
<path d="M6615 5290 c-3 -5 8 -16 24 -25 38 -19 41 -19 41 4 0 27 -51 44 -65
21z"/>
<path d="M3670 5276 c0 -19 27 -28 33 -11 7 15 -1 25 -20 25 -7 0 -13 -6 -13
-14z"/>
<path d="M6347 5276 c-7 -19 18 -40 38 -32 13 4 14 10 5 26 -12 23 -35 26 -43
6z"/>
<path d="M2915 5266 c-12 -9 -16 -19 -11 -31 6 -18 8 -17 29 3 26 27 12 50
-18 28z"/>
<path d="M710 5231 c-5 -11 -10 -24 -10 -29 0 -17 38 -20 60 -5 20 14 20 16 4
34 -22 24 -41 24 -54 0z"/>
<path d="M1179 5231 c-20 -18 -22 -22 -9 -30 25 -17 55 -7 55 19 0 31 -17 35
-46 11z"/>
<path d="M490 5220 c-11 -7 -12 -14 -2 -34 6 -14 16 -26 21 -26 9 0 31 31 31
44 0 12 -37 24 -50 16z"/>
<path d="M301 5206 c-8 -10 -8 -16 3 -25 10 -9 16 -8 26 3 12 15 6 36 -9 36
-5 0 -14 -6 -20 -14z"/>
<path d="M6320 5191 c-14 -27 -13 -41 3 -41 19 0 50 37 42 49 -10 17 -33 13
-45 -8z"/>
<path d="M177 5185 c-3 -7 1 -21 8 -32 12 -15 16 -16 24 -4 5 8 7 20 4 27 -7
19 -31 25 -36 9z"/>
<path d="M3360 5155 c-12 -14 -12 -18 1 -25 19 -12 33 4 22 25 -9 15 -11 15
-23 0z"/>
<path d="M5873 5155 c-8 -23 26 -58 44 -44 18 15 17 46 -3 53 -25 9 -34 7 -41
-9z"/>
<path d="M6623 5155 c-7 -20 2 -29 21 -22 9 4 13 13 10 22 -8 19 -23 19 -31 0z"/>
<path d="M1231 5142 c-8 -15 -7 -23 4 -32 16 -13 35 -6 35 14 0 8 -6 19 -14
25 -12 10 -17 8 -25 -7z"/>
<path d="M470 5139 c0 -7 5 -29 12 -50 9 -32 16 -39 36 -39 23 0 24 2 10 18
-8 9 -20 32 -28 50 -12 31 -30 44 -30 21z"/>
<path d="M6412 5128 c3 -25 25 -33 47 -19 12 8 12 12 2 25 -21 25 -53 21 -49
-6z"/>
<path d="M560 5125 c-10 -11 -10 -19 -2 -27 15 -15 44 -2 40 19 -4 23 -22 27
-38 8z"/>
<path d="M4042 5131 c4 -13 18 -16 19 -4 0 4 -5 9 -11 12 -7 2 -11 -2 -8 -8z"/>
<path d="M6497 5133 c-13 -13 -7 -21 13 -16 11 3 17 9 14 14 -6 11 -18 12 -27
2z"/>
<path d="M759 5123 c-9 -2 -22 -15 -29 -28 -12 -22 -11 -27 14 -46 24 -19 26
-26 23 -70 -4 -38 -1 -52 15 -66 17 -15 20 -15 28 -3 5 8 7 23 4 32 -8 27 27
67 68 78 43 12 57 44 38 81 -12 22 -13 22 -56 -24 -59 -63 -111 -64 -78 -2 8
16 12 35 10 42 -5 13 -9 14 -37 6z"/>
<path d="M1592 5107 c6 -12 14 -29 18 -37 10 -20 34 -19 38 1 2 10 -11 25 -32
37 l-36 21 12 -22z"/>
<path d="M2410 5115 c0 -8 5 -15 10 -15 6 0 10 7 10 15 0 8 -4 15 -10 15 -5 0
-10 -7 -10 -15z"/>
<path d="M6864 5115 c-18 -13 -18 -15 -2 -31 19 -19 38 -11 38 16 0 26 -14 32
-36 15z"/>
<path d="M53 5085 c-8 -9 -9 -16 -3 -20 6 -3 13 1 16 10 9 21 2 26 -13 10z"/>
<path d="M167 5093 c-7 -11 -1 -99 7 -112 5 -8 13 -8 27 0 30 16 34 37 9 57
-19 16 -21 22 -11 40 10 19 9 22 -8 22 -11 0 -22 -3 -24 -7z"/>
<path d="M1342 5083 c5 -25 28 -28 28 -4 0 12 -6 21 -16 21 -9 0 -14 -7 -12
-17z"/>
<path d="M2970 5090 c0 -5 5 -10 10 -10 6 0 10 5 10 10 0 6 -4 10 -10 10 -5 0
-10 -4 -10 -10z"/>
<path d="M3062 5071 c-14 -39 3 -56 42 -41 22 8 27 15 24 38 -2 21 -9 28 -29
30 -22 3 -29 -2 -37 -27z"/>
<path d="M280 5080 c0 -5 5 -10 11 -10 5 0 7 5 4 10 -3 6 -8 10 -11 10 -2 0
-4 -4 -4 -10z"/>
<path d="M3546 5074 c-9 -23 -2 -28 13 -10 7 8 8 17 3 20 -6 3 -13 -1 -16 -10z"/>
<path d="M5996 5064 c-8 -29 8 -56 29 -48 17 7 25 37 13 58 -14 24 -35 19 -42
-10z"/>
<path d="M6970 5075 c7 -8 17 -15 22 -15 6 0 5 7 -2 15 -7 8 -17 15 -22 15 -6
0 -5 -7 2 -15z"/>
<path d="M2697 5066 c-7 -19 18 -40 38 -32 13 5 13 9 3 26 -15 23 -34 26 -41
6z"/>
<path d="M4538 5069 c-20 -11 -12 -56 12 -62 25 -6 38 9 32 38 -5 27 -22 37
-44 24z"/>
<path d="M4840 5061 c0 -5 9 -11 21 -14 16 -4 18 -3 8 9 -13 16 -29 19 -29 5z"/>
<path d="M5125 5060 c-3 -5 -2 -10 4 -10 5 0 13 5 16 10 3 6 2 10 -4 10 -5 0
-13 -4 -16 -10z"/>
<path d="M984 5050 c-30 -12 -76 -72 -64 -84 7 -7 14 -6 22 2 7 7 21 12 32 12
10 0 17 3 13 6 -3 4 1 20 9 36 18 35 16 38 -12 28z"/>
<path d="M4312 5039 c2 -6 8 -10 13 -10 5 0 11 4 13 10 2 6 -4 11 -13 11 -9 0
-15 -5 -13 -11z"/>
<path d="M10 5030 c-8 -5 -12 -12 -9 -15 4 -3 12 1 19 10 14 17 11 19 -10 5z"/>
<path d="M685 5011 c-5 -15 -13 -21 -28 -19 -18 2 -22 -2 -22 -22 0 -32 25
-33 41 -1 7 13 18 27 26 32 9 6 10 11 1 20 -8 8 -13 6 -18 -10z"/>
<path d="M3285 5020 c-3 -5 3 -10 15 -10 12 0 18 5 15 10 -3 6 -10 10 -15 10
-5 0 -12 -4 -15 -10z"/>
<path d="M2661 4987 c-16 -40 13 -51 44 -17 20 22 18 29 -14 35 -16 3 -24 -2
-30 -18z"/>
<path d="M1046 4991 c-3 -5 1 -12 10 -15 20 -8 29 -1 19 13 -8 13 -22 14 -29
2z"/>
<path d="M1495 4990 c-3 -5 1 -10 9 -10 9 0 16 5 16 10 0 6 -4 10 -9 10 -6 0
-13 -4 -16 -10z"/>
<path d="M422 4977 c-10 -11 -9 -17 3 -27 20 -17 31 -6 19 21 -8 18 -11 19
-22 6z"/>
<path d="M4157 4970 c8 -30 24 -36 40 -15 10 15 10 20 0 27 -24 15 -45 9 -40
-12z"/>
<path d="M1522 4945 c-10 -21 -17 -24 -37 -19 -15 4 -25 2 -25 -4 0 -14 40
-42 61 -42 38 0 67 71 33 84 -21 8 -19 9 -32 -19z"/>
<path d="M5960 4951 c0 -11 5 -23 11 -27 14 -8 29 14 22 33 -8 20 -33 16 -33
-6z"/>
<path d="M1264 4945 c-7 -18 2 -45 15 -45 12 0 24 37 16 50 -9 15 -25 12 -31
-5z"/>
<path d="M2220 4941 c0 -11 8 -27 17 -36 16 -16 17 -16 30 1 20 27 12 49 -20
52 -21 3 -27 -1 -27 -17z"/>
<path d="M2970 4940 c0 -22 7 -25 29 -11 16 10 6 31 -15 31 -8 0 -14 -9 -14
-20z"/>
<path d="M5020 4934 c-6 -14 -10 -26 -10 -28 0 -1 16 0 36 2 38 5 56 28 33 43
-26 16 -49 9 -59 -17z"/>
<path d="M5140 4951 c0 -6 10 -22 23 -37 19 -22 25 -24 35 -12 9 12 7 19 -9
36 -20 22 -49 30 -49 13z"/>
<path d="M2760 4941 c0 -23 14 -41 31 -41 23 0 26 35 3 44 -22 9 -34 7 -34 -3z"/>
<path d="M4497 4943 c-14 -14 -6 -42 14 -48 28 -9 32 -2 18 29 -12 26 -20 31
-32 19z"/>
<path d="M2844 4925 c-15 -11 -16 -14 -4 -15 21 0 44 16 33 23 -6 4 -19 0 -29
-8z"/>
<path d="M4680 4911 c-7 -15 -7 -21 0 -21 12 0 25 28 17 36 -3 3 -10 -4 -17
-15z"/>
<path d="M450 4899 c-14 -25 2 -48 30 -46 25 2 33 23 20 48 -14 25 -36 24 -50
-2z"/>
<path d="M3210 4910 c-13 -9 -12 -12 4 -25 23 -17 42 -5 33 19 -7 18 -16 20
-37 6z"/>
<path d="M4771 4906 c-7 -8 -8 -17 -3 -20 6 -3 15 1 21 8 7 8 8 17 3 20 -6 3
-15 -1 -21 -8z"/>
<path d="M210 4900 c0 -5 5 -10 10 -10 6 0 10 5 10 10 0 6 -4 10 -10 10 -5 0
-10 -4 -10 -10z"/>
<path d="M3310 4884 c0 -10 27 -33 33 -28 9 10 -4 34 -19 34 -8 0 -14 -3 -14
-6z"/>
<path d="M4050 4876 c0 -9 7 -16 16 -16 9 0 14 5 12 12 -6 18 -28 21 -28 4z"/>
<path d="M4845 4881 c-10 -18 17 -23 33 -7 15 15 15 16 -5 16 -12 0 -24 -4
-28 -9z"/>
<path d="M5350 4880 c-8 -5 -11 -10 -7 -10 4 0 3 -9 -3 -20 -9 -17 -7 -22 14
-31 33 -15 58 -5 54 22 -4 29 -38 51 -58 39z"/>
<path d="M6459 4864 c-13 -35 -7 -39 30 -20 20 11 28 21 25 31 -10 25 -44 18
-55 -11z"/>
<path d="M2347 4873 c-4 -3 -7 -17 -7 -30 0 -27 30 -32 51 -7 11 14 10 18 -6
30 -21 16 -29 17 -38 7z"/>
<path d="M5077 4867 c-9 -24 15 -48 41 -41 33 9 26 48 -9 52 -16 2 -29 -3 -32
-11z"/>
<path d="M660 4847 c0 -27 13 -36 26 -16 3 6 -1 18 -10 27 -15 15 -16 14 -16
-11z"/>
<path d="M841 4836 c-9 -10 -8 -16 3 -25 22 -18 51 -9 54 17 3 18 -1 22 -21
22 -14 0 -30 -6 -36 -14z"/>
<path d="M1035 4842 c-11 -8 -16 -42 -6 -42 15 1 42 30 36 39 -7 13 -16 14
-30 3z"/>
<path d="M1420 4820 c0 -29 2 -31 33 -28 27 2 32 7 32 28 0 21 -5 26 -32 28
-31 3 -33 1 -33 -28z"/>
<path d="M3790 4840 c0 -5 5 -10 10 -10 6 0 10 5 10 10 0 6 -4 10 -10 10 -5 0
-10 -4 -10 -10z"/>
<path d="M6126 4825 c-6 -18 16 -30 39 -21 20 7 8 36 -15 36 -10 0 -21 -7 -24
-15z"/>
<path d="M356 4804 c-7 -18 17 -57 37 -60 20 -3 37 29 30 56 -5 17 -60 21 -67
4z"/>
<path d="M736 4796 c-23 -19 -25 -24 -12 -29 27 -11 66 17 66 47 0 14 -29 4
-54 -18z"/>
<path d="M1317 4802 c-18 -20 -13 -32 11 -32 14 0 41 27 42 43 0 14 -37 7 -53
-11z"/>
<path d="M3848 4809 c-11 -6 -18 -22 -18 -39 0 -24 3 -28 26 -25 34 3 46 17
42 46 -3 27 -24 34 -50 18z"/>
<path d="M6235 4791 c-10 -17 13 -50 32 -47 27 4 24 50 -4 54 -11 2 -24 -2
-28 -7z"/>
<path d="M6397 4794 c-10 -10 -9 -44 2 -44 13 0 23 32 13 42 -5 5 -11 5 -15 2z"/>
<path d="M590 4777 c0 -19 10 -27 25 -20 17 6 8 33 -11 33 -8 0 -14 -6 -14
-13z"/>
<path d="M3940 4781 c0 -23 14 -41 31 -41 23 0 26 35 3 44 -22 9 -34 7 -34 -3z"/>
<path d="M4336 4766 c-21 -33 -20 -38 6 -34 24 3 36 34 20 50 -6 6 -15 0 -26
-16z"/>
<path d="M4599 4773 c0 -5 -2 -18 -5 -30 -3 -19 1 -23 20 -23 25 0 43 30 31
50 -7 12 -45 14 -46 3z"/>
<path d="M1650 4760 c-11 -7 -12 -12 -3 -21 15 -15 43 -5 43 16 0 17 -18 19
-40 5z"/>
<path d="M2312 4748 c2 -12 10 -23 18 -23 22 0 19 39 -3 43 -15 3 -18 -1 -15
-20z"/>
<path d="M4175 4750 c-5 -15 -2 -25 6 -31 22 -13 33 7 16 31 l-15 22 -7 -22z"/>
<path d="M6556 4751 c-4 -5 -2 -12 3 -15 5 -4 12 -2 15 3 4 5 2 12 -3 15 -5 4
-12 2 -15 -3z"/>
<path d="M4942 4742 c-9 -3 -9 -9 -1 -23 16 -31 -4 -46 -74 -54 -34 -4 -71 -9
-82 -11 -11 -2 -45 -6 -75 -9 -85 -10 -111 -15 -165 -30 -27 -8 -93 -23 -145
-35 -167 -36 -424 -125 -595 -204 -49 -23 -94 -44 -100 -47 -5 -2 -12 9 -15
25 -6 35 -19 41 -45 22 -17 -13 -18 -18 -7 -36 7 -11 10 -25 7 -30 -3 -5 -56
-34 -117 -65 l-110 -55 -33 34 c-29 31 -35 33 -51 22 -17 -13 -17 -15 -1 -39
9 -15 17 -35 17 -45 0 -25 -154 -125 -192 -124 -22 1 -27 -4 -30 -26 -2 -19
-17 -36 -51 -59 -27 -18 -54 -31 -60 -30 -6 1 -11 -4 -12 -11 0 -8 -24 -31
-54 -52 -82 -59 -371 -331 -371 -349 0 -5 -37 -46 -81 -92 -81 -81 -82 -82
-114 -71 -17 7 -34 12 -38 12 -12 0 -7 -44 7 -72 16 -30 13 -32 -33 -30 -21 1
-23 -2 -19 -33 5 -40 -6 -44 -54 -19 -20 11 -34 12 -40 6 -14 -14 -2 -45 15
-39 21 8 47 -13 47 -38 0 -17 -6 -25 -18 -25 -10 0 -28 -7 -40 -16 -18 -12
-22 -22 -17 -43 8 -37 -69 -144 -98 -135 -17 5 -18 2 -12 -25 4 -21 2 -39 -8
-54 -37 -57 -156 -296 -162 -325 -4 -18 -24 -70 -45 -116 -21 -45 -44 -101
-51 -124 -7 -23 -18 -47 -26 -53 -7 -6 -13 -17 -13 -24 0 -7 -7 -26 -15 -41
-8 -16 -15 -43 -15 -60 0 -16 -23 -115 -51 -220 -49 -185 -62 -242 -74 -334
-3 -25 -10 -70 -15 -100 -22 -130 -34 -534 -18 -635 5 -33 9 -89 9 -125 0 -36
4 -83 9 -105 5 -22 12 -65 15 -95 4 -30 8 -64 10 -75 17 -140 30 -215 41 -237
8 -15 14 -36 14 -47 0 -11 5 -43 11 -71 l11 -50 2641 2 2642 3 2 2158 c2 1347
-1 2157 -7 2157 -5 0 -13 -7 -17 -15 -7 -12 -22 -7 -86 25 -43 22 -101 49
-130 61 -29 12 -62 33 -75 46 -22 22 -38 27 -74 24 -24 -3 -94 16 -163 44 -56
23 -371 105 -403 105 -8 0 -20 8 -27 17 -10 14 -16 15 -27 5 -8 -6 -18 -8 -22
-4 -4 4 -20 8 -34 8 -15 1 -72 9 -127 19 -124 21 -192 25 -527 32 -238 4 -268
7 -273 21 -6 19 -45 40 -63 34z"/>
<path d="M440 4730 c0 -5 5 -10 10 -10 6 0 10 5 10 10 0 6 -4 10 -10 10 -5 0
-10 -4 -10 -10z"/>
<path d="M1502 4708 c4 -28 39 -36 58 -13 12 14 11 18 -1 26 -8 5 -24 9 -37 9
-19 0 -23 -5 -20 -22z"/>
<path d="M190 4704 c0 -8 5 -12 10 -9 6 4 8 11 5 16 -9 14 -15 11 -15 -7z"/>
<path d="M1063 4709 c-23 -7 -33 -16 -33 -30 0 -34 31 -36 57 -3 36 45 33 49
-24 33z"/>
<path d="M3626 4703 c-6 -14 -5 -15 5 -6 7 7 10 15 7 18 -3 3 -9 -2 -12 -12z"/>
<path d="M1367 4690 c5 -18 39 -37 49 -28 2 2 -3 14 -12 26 -19 28 -44 29 -37
2z"/>
<path d="M2060 4690 c0 -5 5 -10 10 -10 6 0 10 5 10 10 0 6 -4 10 -10 10 -5 0
-10 -4 -10 -10z"/>
<path d="M2814 4665 c-24 -37 -14 -48 24 -25 28 17 32 23 22 35 -17 21 -27 19
-46 -10z"/>
<path d="M3775 4680 c-8 -13 3 -30 20 -30 23 0 25 15 5 28 -12 7 -21 8 -25 2z"/>
<path d="M117 4673 c-4 -3 -7 -19 -7 -35 0 -16 -9 -38 -20 -50 -26 -29 -25
-36 5 -30 14 2 25 11 25 18 0 8 11 20 25 26 33 15 43 48 19 65 -20 14 -37 17
-47 6z"/>
<path d="M827 4669 c-20 -12 -23 -39 -4 -39 15 0 40 37 29 44 -4 2 -15 0 -25
-5z"/>
<path d="M1445 4650 c-3 -5 3 -10 14 -10 12 0 21 5 21 10 0 6 -6 10 -14 10 -8
0 -18 -4 -21 -10z"/>
<path d="M4142 4637 c-28 -29 -29 -57 -2 -57 11 0 20 4 20 8 0 5 9 19 20 32
11 13 20 27 20 32 0 17 -37 7 -58 -15z"/>
<path d="M6155 4650 c3 -5 8 -10 11 -10 2 0 4 5 4 10 0 6 -5 10 -11 10 -5 0
-7 -4 -4 -10z"/>
<path d="M539 4631 c-19 -16 -20 -20 -8 -21 17 0 45 27 37 35 -3 3 -16 -3 -29
-14z"/>
<path d="M2483 4624 c-8 -20 9 -36 30 -28 13 5 14 10 6 25 -12 23 -28 25 -36
3z"/>
<path d="M1482 4598 c-16 -16 -15 -28 3 -28 8 0 15 9 15 20 0 23 -2 24 -18 8z"/>
<path d="M990 4585 c0 -8 5 -15 10 -15 6 0 10 7 10 15 0 8 -4 15 -10 15 -5 0
-10 -7 -10 -15z"/>
<path d="M2586 4591 c-11 -24 2 -46 27 -49 26 -3 28 -1 25 24 -2 20 -9 28 -26
29 -13 1 -24 -1 -26 -4z"/>
<path d="M733 4579 c-39 -14 -21 -60 21 -53 10 1 34 -5 52 -14 25 -11 37 -13
45 -5 17 17 1 34 -26 27 -20 -5 -27 -1 -34 19 -11 29 -29 37 -58 26z"/>
<path d="M1178 4563 c-8 -16 -15 -41 -14 -58 1 -25 6 -31 28 -33 25 -3 27 0
33 42 5 31 3 51 -5 61 -17 21 -23 19 -42 -12z"/>
<path d="M1930 4581 c0 -6 5 -13 10 -16 6 -3 10 1 10 9 0 9 -4 16 -10 16 -5 0
-10 -4 -10 -9z"/>
<path d="M2740 4563 c0 -25 1 -26 16 -11 9 9 13 21 10 27 -13 20 -26 11 -26
-16z"/>
<path d="M1626 4563 c-10 -25 8 -37 34 -23 21 11 21 12 3 25 -24 19 -30 18
-37 -2z"/>
<path d="M410 4544 c-8 -9 -10 -18 -4 -24 6 -6 14 -2 22 10 14 23 -1 36 -18
14z"/>
<path d="M534 4545 c-4 -9 -4 -18 -2 -21 9 -8 39 8 35 19 -6 18 -27 20 -33 2z"/>
<path d="M903 4534 c-7 -19 11 -38 30 -31 8 3 17 15 20 26 4 17 1 21 -19 21
-14 0 -27 -7 -31 -16z"/>
<path d="M2905 4540 c3 -5 13 -10 21 -10 8 0 12 5 9 10 -3 6 -13 10 -21 10 -8
0 -12 -4 -9 -10z"/>
<path d="M3610 4525 c0 -17 7 -28 23 -34 29 -11 36 -6 33 27 -2 21 -9 28 -30
30 -22 3 -26 0 -26 -23z"/>
<path d="M1104 4532 c-6 -4 -14 -24 -18 -44 -5 -29 -14 -42 -39 -54 -56 -29
-59 -44 -15 -85 39 -35 64 -44 82 -29 18 14 9 48 -16 56 -22 7 -21 38 2 40 8
1 21 2 29 3 10 1 11 10 6 34 -3 17 -7 44 -7 60 -1 28 -5 32 -24 19z"/>
<path d="M950 4480 c-34 -34 -20 -72 19 -51 22 12 33 35 25 56 -8 20 -20 19
-44 -5z"/>
<path d="M187 4441 l-37 -37 29 -28 c35 -34 70 -31 49 4 -10 16 -10 24 0 40
14 22 16 46 5 53 -5 3 -25 -12 -46 -32z"/>
<path d="M1466 4461 c-17 -18 -17 -20 3 -30 28 -15 31 -14 31 13 0 33 -14 40
-34 17z"/>
<path d="M621 4447 c-16 -16 7 -41 25 -26 8 6 14 15 14 19 0 14 -27 19 -39 7z"/>
<path d="M2505 4450 c3 -5 8 -10 11 -10 2 0 4 5 4 10 0 6 -5 10 -11 10 -5 0
-7 -4 -4 -10z"/>
<path d="M6973 4434 c-3 -8 2 -23 11 -32 15 -15 16 -14 16 16 0 33 -16 43 -27
16z"/>
<path d="M2340 4430 c0 -5 5 -10 10 -10 6 0 10 5 10 10 0 6 -4 10 -10 10 -5 0
-10 -4 -10 -10z"/>
<path d="M827 4424 c-11 -12 13 -44 33 -44 25 0 35 17 20 35 -13 15 -42 20
-53 9z"/>
<path d="M452 4411 c-9 -6 -8 -13 8 -31 16 -18 23 -21 32 -12 16 16 -21 55
-40 43z"/>
<path d="M548 4389 c-5 -34 11 -43 41 -23 31 22 27 49 -8 50 -25 1 -30 -3 -33
-27z"/>
<path d="M1176 4404 c-22 -21 -4 -54 29 -54 20 0 25 5 25 25 0 33 -33 51 -54
29z"/>
<path d="M1584 4407 c-9 -23 3 -36 28 -32 23 5 45 22 37 29 -2 2 -16 7 -31 11
-21 5 -29 3 -34 -8z"/>
<path d="M3496 4404 c-16 -11 -17 -16 -6 -29 15 -18 26 -13 33 15 7 26 -4 32
-27 14z"/>
<path d="M1730 4375 c0 -9 6 -12 15 -9 8 4 15 7 15 9 0 2 -7 5 -15 9 -9 3 -15
0 -15 -9z"/>
<path d="M2115 4359 c-4 -5 1 -19 11 -30 16 -18 19 -18 27 -4 14 27 -23 60
-38 34z"/>
<path d="M404 4333 c-17 -17 -17 -18 5 -21 27 -4 47 11 37 27 -10 16 -22 14
-42 -6z"/>
<path d="M821 4311 c-8 -6 -9 -11 -3 -15 6 -3 14 -1 17 5 9 14 2 20 -14 10z"/>
<path d="M2394 4305 c-8 -19 18 -45 43 -45 20 0 16 14 -12 40 -23 21 -25 22
-31 5z"/>
<path d="M2235 4290 c-3 -5 1 -10 10 -10 9 0 13 5 10 10 -3 6 -8 10 -10 10 -2
0 -7 -4 -10 -10z"/>
<path d="M71 4261 c-8 -14 -6 -22 8 -35 16 -15 19 -15 34 2 21 23 22 38 1 46
-25 10 -33 7 -43 -13z"/>
<path d="M1235 4249 c-9 -14 5 -49 19 -49 19 0 36 23 28 36 -11 16 -41 24 -47
13z"/>
<path d="M2563 4241 c-10 -16 -9 -22 3 -32 12 -10 18 -9 31 4 17 17 11 47 -9
47 -7 0 -19 -9 -25 -19z"/>
<path d="M2975 4250 c-10 -16 4 -48 25 -55 10 -3 22 -15 25 -26 8 -26 40 -21
40 6 0 13 -8 21 -22 23 -15 2 -23 11 -25 30 -3 28 -31 42 -43 22z"/>
<path d="M2283 4234 c-3 -8 -1 -20 5 -26 15 -15 43 8 35 28 -7 19 -32 18 -40
-2z"/>
<path d="M2904 4242 c-31 -21 -22 -61 13 -62 21 0 36 39 22 56 -13 16 -19 17
-35 6z"/>
<path d="M187 4233 c-12 -11 -8 -40 7 -52 16 -13 42 -6 50 14 10 26 -38 58
-57 38z"/>
<path d="M1600 4231 c0 -5 5 -13 10 -16 6 -3 10 -2 10 4 0 5 -4 13 -10 16 -5
3 -10 2 -10 -4z"/>
<path d="M2016 4224 c-9 -22 1 -33 24 -27 23 6 25 14 8 31 -16 16 -25 15 -32
-4z"/>
<path d="M565 4210 c3 -5 10 -10 16 -10 5 0 9 5 9 10 0 6 -7 10 -16 10 -8 0
-12 -4 -9 -10z"/>
<path d="M940 4190 c-8 -14 -7 -29 4 -55 18 -41 41 -39 51 5 12 54 -32 94 -55
50z"/>
<path d="M1196 4175 c-3 -8 -1 -15 3 -15 5 0 11 7 15 15 3 8 1 15 -3 15 -5 0
-11 -7 -15 -15z"/>
<path d="M1367 4173 c-12 -12 -7 -22 8 -17 8 4 15 10 15 15 0 11 -14 12 -23 2z"/>
<path d="M2763 4170 c-27 -11 -21 -36 9 -46 24 -7 41 7 36 32 -4 21 -16 25
-45 14z"/>
<path d="M2172 4127 c-7 -8 -7 -18 -2 -27 8 -13 11 -13 26 2 9 9 13 21 10 27
-9 15 -21 14 -34 -2z"/>
<path d="M1111 4106 c-17 -20 10 -50 37 -42 29 10 28 30 -2 44 -19 8 -27 8
-35 -2z"/>
<path d="M1396 4101 c-3 -4 1 -16 8 -27 12 -15 16 -16 30 -5 24 20 20 41 -8
41 -14 0 -27 -4 -30 -9z"/>
<path d="M2886 4095 c-4 -12 -1 -16 14 -13 24 3 28 22 7 26 -8 2 -17 -4 -21
-13z"/>
<path d="M692 4084 c3 -17 21 -21 26 -6 1 5 -4 12 -13 16 -11 4 -15 1 -13 -10z"/>
<path d="M2716 4082 c-3 -3 -6 -9 -6 -14 0 -11 37 -10 44 1 6 10 -30 22 -38
13z"/>
<path d="M976 4046 l-28 -11 20 -25 c24 -30 46 -17 40 23 -3 24 -5 24 -32 13z"/>
<path d="M1515 4050 c3 -5 13 -10 21 -10 8 0 12 5 9 10 -3 6 -13 10 -21 10 -8
0 -12 -4 -9 -10z"/>
<path d="M90 4041 c0 -6 4 -13 10 -16 6 -3 7 1 4 9 -7 18 -14 21 -14 7z"/>
<path d="M2983 4034 c-7 -18 6 -45 25 -52 6 -2 15 6 21 17 8 15 7 23 -5 35
-20 20 -33 20 -41 0z"/>
<path d="M1680 4030 c0 -5 7 -7 15 -4 8 4 15 8 15 10 0 2 -7 4 -15 4 -8 0 -15
-4 -15 -10z"/>
<path d="M2590 4003 c0 -25 1 -26 16 -11 9 9 13 21 10 27 -13 20 -26 11 -26
-16z"/>
<path d="M1790 3995 c-14 -16 3 -55 24 -55 21 0 51 39 40 50 -17 17 -52 19
-64 5z"/>
<path d="M1055 3980 c-4 -6 -4 -10 -1 -10 2 0 11 -3 20 -6 9 -3 16 -2 16 4 0
14 -28 23 -35 12z"/>
<path d="M2335 3963 c9 -37 9 -63 0 -91 -7 -20 -5 -21 16 -14 12 5 29 18 36
29 12 18 12 23 -2 37 -9 9 -18 22 -19 29 -3 19 -16 37 -28 37 -6 0 -8 -10 -3
-27z"/>
<path d="M635 3970 c-8 -13 9 -20 24 -11 10 6 9 10 -3 14 -8 3 -18 2 -21 -3z"/>
<path d="M2642 3964 c-29 -20 -28 -48 3 -68 24 -16 26 -16 35 9 13 35 13 50
-3 63 -10 9 -19 7 -35 -4z"/>
<path d="M337 3944 c-12 -12 -8 -52 5 -56 7 -3 19 2 27 9 12 13 11 17 -6 34
-10 11 -22 16 -26 13z"/>
<path d="M2245 3940 c-3 -5 3 -10 15 -10 12 0 18 5 15 10 -3 6 -10 10 -15 10
-5 0 -12 -4 -15 -10z"/>
<path d="M2751 3922 c-12 -22 3 -44 25 -35 18 7 18 27 0 42 -12 10 -17 8 -25
-7z"/>
<path d="M1590 3916 c0 -9 7 -16 16 -16 9 0 14 5 12 12 -6 18 -28 21 -28 4z"/>
<path d="M1975 3900 c-3 -5 -1 -10 4 -10 6 0 11 5 11 10 0 6 -2 10 -4 10 -3 0
-8 -4 -11 -10z"/>
<path d="M2845 3880 c3 -5 8 -10 11 -10 2 0 4 5 4 10 0 6 -5 10 -11 10 -5 0
-7 -4 -4 -10z"/>
<path d="M1252 3858 c4 -27 33 -36 42 -13 8 22 -1 35 -25 35 -15 0 -20 -6 -17
-22z"/>
<path d="M1866 3831 c-4 -7 -5 -15 -2 -18 9 -9 19 4 14 18 -4 11 -6 11 -12 0z"/>
<path d="M2480 3821 c-8 -16 -6 -21 11 -26 26 -8 42 6 33 28 -8 23 -31 21 -44
-2z"/>
<path d="M443 3814 c-3 -8 -1 -20 6 -27 8 -8 15 -6 25 8 8 11 12 23 10 27 -9
14 -34 9 -41 -8z"/>
<path d="M2040 3701 c0 -25 10 -51 19 -51 4 0 13 12 20 27 10 21 9 28 -1 34
-22 14 -38 10 -38 -10z"/>
<path d="M106 3693 c-4 -9 -2 -21 4 -27 6 -6 10 -6 11 0 0 5 2 17 4 27 4 22
-11 22 -19 0z"/>
<path d="M311 3676 c-8 -10 -7 -17 3 -26 17 -13 36 -6 36 15 0 19 -27 26 -39
11z"/>
<path d="M2454 3679 c-4 -7 1 -18 11 -26 27 -19 37 -16 33 9 -3 25 -32 36 -44
17z"/>
<path d="M1155 3671 c-3 -5 -1 -12 5 -16 5 -3 10 1 10 9 0 18 -6 21 -15 7z"/>
<path d="M1520 3621 c0 -11 26 -22 34 -14 3 3 3 10 0 14 -7 12 -34 11 -34 0z"/>
<path d="M1277 3604 c-11 -11 3 -24 18 -18 8 4 12 10 9 15 -6 11 -18 12 -27 3z"/>
<path d="M2450 3560 c-24 -24 -26 -46 -4 -54 40 -15 79 28 54 59 -16 20 -26
19 -50 -5z"/>
<path d="M628 3528 c-32 -11 -35 -20 -12 -38 12 -11 18 -11 30 2 26 25 14 47
-18 36z"/>
<path d="M480 3515 c-11 -13 -10 -18 6 -29 18 -13 44 -11 44 4 0 4 -8 14 -19
24 -16 15 -19 15 -31 1z"/>
<path d="M1812 3513 c5 -25 28 -28 28 -4 0 12 -6 21 -16 21 -9 0 -14 -7 -12
-17z"/>
<path d="M285 3500 c-3 -5 -1 -10 4 -10 6 0 11 5 11 10 0 6 -2 10 -4 10 -3 0
-8 -4 -11 -10z"/>
<path d="M2216 3491 c-4 -5 -2 -12 3 -15 5 -4 12 -2 15 3 4 5 2 12 -3 15 -5 4
-12 2 -15 -3z"/>
<path d="M2358 3476 c-10 -7 -18 -17 -18 -22 0 -5 -9 -20 -20 -34 -11 -14 -20
-28 -20 -32 0 -15 29 -8 39 10 8 15 13 15 31 4 20 -12 60 -8 60 6 0 7 -49 82
-53 82 -1 0 -10 -7 -19 -14z"/>
<path d="M2506 3481 c-4 -5 -2 -12 3 -15 5 -4 12 -2 15 3 4 5 2 12 -3 15 -5 4
-12 2 -15 -3z"/>
<path d="M1754 3458 c-10 -33 32 -51 55 -24 9 10 7 17 -5 27 -25 20 -43 19
-50 -3z"/>
<path d="M1156 3451 c-3 -5 1 -11 9 -15 8 -3 15 -1 15 4 0 13 -18 22 -24 11z"/>
<path d="M1188 3401 c-5 -43 16 -52 48 -19 32 31 24 58 -16 55 -24 -2 -29 -7
-32 -36z"/>
<path d="M1384 3419 c-3 -6 1 -18 10 -27 16 -16 18 -16 31 2 8 10 12 23 9 27
-7 13 -42 11 -50 -2z"/>
<path d="M1953 3422 c-7 -4 -9 -13 -4 -21 10 -16 31 -6 31 15 0 16 -9 18 -27
6z"/>
<path d="M110 3401 c0 -5 5 -13 10 -16 6 -3 10 -2 10 4 0 5 -4 13 -10 16 -5 3
-10 2 -10 -4z"/>
<path d="M1604 3348 c-44 -85 -1 -94 53 -11 18 26 15 32 -16 38 -16 3 -25 -4
-37 -27z"/>
<path d="M2137 3369 c-9 -6 -17 -19 -17 -29 0 -15 6 -19 25 -18 19 2 25 8 25
25 0 27 -10 34 -33 22z"/>
<path d="M675 3341 c-10 -17 4 -31 31 -31 19 0 25 5 22 18 -4 19 -43 29 -53
13z"/>
<path d="M1305 3309 c-11 -17 1 -21 15 -4 8 9 8 15 2 15 -6 0 -14 -5 -17 -11z"/>
<path d="M1840 3305 c-17 -20 13 -39 40 -25 11 6 18 15 15 19 -9 15 -44 19
-55 6z"/>
<path d="M700 3251 c0 -6 5 -13 10 -16 6 -3 10 1 10 9 0 9 -4 16 -10 16 -5 0
-10 -4 -10 -9z"/>
<path d="M1355 3240 c3 -5 13 -10 21 -10 8 0 12 5 9 10 -3 6 -13 10 -21 10 -8
0 -12 -4 -9 -10z"/>
<path d="M1900 3231 c0 -25 20 -38 31 -20 15 23 10 39 -11 39 -13 0 -20 -7
-20 -19z"/>
<path d="M1074 3225 c-4 -8 0 -22 7 -31 11 -13 14 -13 21 0 9 16 1 46 -13 46
-5 0 -12 -7 -15 -15z"/>
<path d="M1842 3192 c-17 -12 -4 -42 18 -42 22 0 32 24 17 39 -13 13 -18 13
-35 3z"/>
<path d="M107 3169 c-14 -8 -16 -14 -6 -25 13 -16 39 -2 39 22 0 17 -8 17 -33
3z"/>
<path d="M1572 3112 c-12 -10 -25 -30 -28 -46 l-5 -29 28 18 c37 23 53 44 46
61 -7 18 -13 17 -41 -4z"/>
<path d="M1676 3094 c-9 -23 -8 -24 14 -24 11 0 20 2 20 4 0 12 -13 36 -20 36
-4 0 -11 -7 -14 -16z"/>
<path d="M1843 3075 c0 -10 8 -15 21 -13 12 2 21 8 21 13 0 6 -9 11 -21 13
-13 2 -21 -3 -21 -13z"/>
<path d="M1536 2992 c-13 -12 -5 -48 13 -59 16 -10 22 -8 36 7 14 15 15 23 6
34 -13 16 -47 27 -55 18z"/>
<path d="M1722 2991 c-21 -13 -11 -56 12 -56 25 0 41 51 19 59 -18 7 -15 7
-31 -3z"/>
<path d="M620 2965 c-10 -12 -9 -16 4 -21 22 -8 46 2 46 21 0 19 -34 20 -50 0z"/>
<path d="M1352 2971 c-12 -7 -12 -13 0 -35 14 -27 14 -27 32 -7 30 33 5 66
-32 42z"/>
<path d="M2007 2973 c-15 -14 -7 -43 12 -43 26 0 36 17 21 35 -14 16 -23 19
-33 8z"/>
<path d="M1467 2934 c-7 -7 13 -54 23 -54 4 0 13 6 19 14 8 10 8 16 -1 23 -23
18 -35 23 -41 17z"/>
<path d="M1676 2911 c-4 -7 -5 -15 -2 -18 9 -9 19 4 14 18 -4 11 -6 11 -12 0z"/>
<path d="M1820 2896 c0 -18 17 -29 30 -21 8 5 7 11 -1 21 -15 18 -29 18 -29 0z"/>
<path d="M1310 2810 c-10 -6 -11 -14 -4 -29 8 -17 11 -18 28 -6 16 12 17 16 4
29 -9 9 -20 11 -28 6z"/>
<path d="M1761 2796 c-10 -12 -8 -17 7 -25 22 -12 32 -6 32 21 0 21 -23 24
-39 4z"/>
<path d="M1953 2768 c-13 -29 6 -62 33 -56 27 5 27 23 2 53 l-24 27 -11 -24z"/>
<path d="M1700 2726 c0 -9 5 -16 10 -16 6 0 10 4 10 9 0 6 -4 13 -10 16 -5 3
-10 -1 -10 -9z"/>
<path d="M1786 2688 c-21 -36 -23 -44 -11 -51 8 -4 15 -17 15 -27 0 -11 6 -19
13 -17 21 4 26 21 11 38 -14 16 -14 18 4 23 26 8 44 50 29 65 -20 20 -35 12
-61 -31z"/>
<path d="M1520 2621 c0 -11 31 -24 39 -16 3 3 -1 10 -9 15 -19 12 -30 12 -30
1z"/>
<path d="M1857 2608 c-9 -28 5 -48 34 -48 36 0 49 25 23 45 -24 18 -51 19 -57
3z"/>
<path d="M1460 2509 c0 -24 23 -21 28 4 2 10 -3 17 -12 17 -10 0 -16 -9 -16
-21z"/>
<path d="M606 2442 c-3 -6 -1 -14 5 -17 15 -10 25 3 12 16 -7 7 -13 7 -17 1z"/>
<path d="M1527 2432 c-12 -2 -17 -11 -15 -25 4 -30 34 -34 41 -5 7 27 -1 36
-26 30z"/>
<path d="M33 2413 c-17 -6 -17 -40 0 -46 23 -9 40 8 32 32 -6 21 -11 23 -32
14z"/>
<path d="M442 2358 c-11 -14 -15 -33 -13 -63 1 -18 4 -17 26 8 14 15 25 37 25
48 0 21 -22 26 -38 7z"/>
<path d="M1544 2188 c-4 -6 1 -17 12 -25 20 -15 30 -4 20 22 -6 18 -22 19 -32
3z"/>
<path d="M407 2093 c-10 -9 -9 -23 2 -23 5 0 11 7 15 15 5 15 -5 20 -17 8z"/>
<path d="M548 1969 c-19 -11 -13 -39 8 -39 15 0 37 34 27 44 -8 8 -15 7 -35
-5z"/>
<path d="M793 1729 c-2 -19 11 -26 21 -10 3 5 0 14 -7 19 -10 8 -13 6 -14 -9z"/>
<path d="M630 1680 c0 -5 7 -10 15 -10 8 0 15 5 15 10 0 6 -7 10 -15 10 -8 0
-15 -4 -15 -10z"/>
<path d="M1015 1560 c-3 -5 3 -10 15 -10 12 0 18 5 15 10 -3 6 -10 10 -15 10
-5 0 -12 -4 -15 -10z"/>
<path d="M347 1413 c-2 -4 -1 -16 2 -26 6 -16 9 -17 19 -4 10 11 9 17 -2 26
-8 7 -16 8 -19 4z"/>
<path d="M377 1176 c-7 -19 11 -32 24 -19 6 6 5 14 -4 22 -12 9 -16 8 -20 -3z"/>
<path d="M580 1116 c0 -14 28 -36 45 -36 4 0 5 10 3 23 -4 26 -48 38 -48 13z"/>
<path d="M757 1103 c-4 -3 2 -13 14 -21 23 -16 32 -12 23 12 -6 16 -25 21 -37
9z"/>
</g>
</svg>
